<?xml version="1.0" encoding="utf-8"?>
<!-- Generator: Adobe Illustrator 16.0.3, SVG Export Plug-In . SVG Version: 6.00 Build 0)  -->
<!DOCTYPE svg PUBLIC "-//W3C//DTD SVG 1.1//EN" "http://www.w3.org/Graphics/SVG/1.1/DTD/svg11.dtd">
<svg version="1.1" id="Layer_1" xmlns="http://www.w3.org/2000/svg" xmlns:xlink="http://www.w3.org/1999/xlink" x="0px" y="0px"
	 width="24px" height="24px" viewBox="0 0 24 24" enable-background="new 0 0 24 24" xml:space="preserve">
<g>
	<path fill="none" d="M5,19h14V8H5V19z M12,12h5v5h-5V12z"/>
	<path d="M19,3h-1V1h-2v2H8V1H6v2H5C3.89,3,3.01,3.9,3.01,5L3,19c0,1.1,0.89,2,2,2h14c1.1,0,2-0.9,2-2V5C21,3.9,20.1,3,19,3z M19,19
		H5V8h14V19z"/>
</g>
<path fill="none" d="M0,0h24v24H0V0z"/>
<g>
	<path d="M12,9.447c0,0-1.866,1.857-1.866,4.76c0,0.133,0.012,0.266,0.035,0.395c-0.278,0.236-0.663,0.637-0.664,1.039
		c0.001,0.941,0.628,1.883,0.628,1.883l0.888-1.186l0.355,0.355h1.245l0.354-0.355l0.889,1.186c0,0,0.629-0.941,0.629-1.883
		c0-0.402-0.387-0.803-0.662-1.039c0.021-0.129,0.033-0.262,0.033-0.395C13.865,11.304,12,9.447,12,9.447z M11.586,13.17
		c-0.229-0.229-0.229-0.6,0-0.829c0.229-0.23,0.6-0.23,0.83,0c0.229,0.229,0.229,0.6,0,0.829
		C12.186,13.398,11.815,13.398,11.586,13.17z"/>
	<path d="M12.405,17.135C12.404,17.539,12,17.74,12,17.74s-0.404-0.201-0.404-0.605c0-0.025,0.01-0.045,0.014-0.068l-0.189,0.002
		c-0.058,0.098-0.094,0.213-0.094,0.336c0,0.566,0.674,1.148,0.674,1.148s0.674-0.574,0.674-1.148c0-0.125-0.035-0.238-0.094-0.338
		l-0.19,0.002C12.394,17.088,12.405,17.109,12.405,17.135z"/>
</g>
</svg>
