<?xml version="1.0" encoding="utf-8"?>
<!-- Generator: Adobe Illustrator 16.0.3, SVG Export Plug-In . SVG Version: 6.00 Build 0)  -->
<!DOCTYPE svg PUBLIC "-//W3C//DTD SVG 1.1//EN" "http://www.w3.org/Graphics/SVG/1.1/DTD/svg11.dtd">
<svg version="1.1" id="Layer_1" xmlns="http://www.w3.org/2000/svg" xmlns:xlink="http://www.w3.org/1999/xlink" x="0px" y="0px"
	 width="1440px" height="447px" viewBox="0 0 1440 447" enable-background="new 0 0 1440 447" xml:space="preserve">
<title>Group 23</title>
<desc>Created with Sketch.</desc>
<g id="Crugo-Design">
	<g id="Pricing" transform="translate(0.000000, -2477.000000)">
		<g id="Need-Help_x3F_" transform="translate(-266.000000, 2477.000000)">
			<g id="Group-23">
				<path id="Rectangle-59-Copy-2" opacity="0.1" fill="#FFFFFF" enable-background="new    " d="M137.775,462.53l1617.94,4.47
					L1856.526,77.22c0,0,193.443-15.789-36.79-20.15c-230.234-4.361-239.948-59.308-435.406-35.294
					c-195.459,24.014-192.788,95.763-335.938,117.217c-143.149,21.455-322.447-31.595-507.159-20.37
					c-184.709,11.224-232.228,112.426-423.044,89.654C-48.736,188.356,137.775,462.53,137.775,462.53z"/>
				<path id="Rectangle-59" opacity="0.1" fill="#FFFFFF" enable-background="new    " d="M1721.938,472.35L214.542,461.163
					L97.375,184.121c83.208,441.333-59.229,139.188,243.917,95.468C561.233,247.872,546.96,156.801,678.54,131.943
					c131.579-24.858,310.59,27.41,443.099,11.143c115.21-14.142,194.438-70.583,290.836-98.631
					c185.417-53.948,249.041,27.468,387.996-14.608C1939.428-12.229,1721.938,472.35,1721.938,472.35z"/>
				<path id="Rectangle-59-Copy" opacity="0.2" fill="#FFFFFF" enable-background="new    " d="M1746.714,472.247L266.196,459.426
					l-7.662-196.854c0,0,132.216,35.622,259.083-4.939c76.569-24.48,181.37-99.422,267.572-109.506
					c137.365-16.071,181.347,32.041,313.856,15.775c115.208-14.142,151.855-58.476,248.255-86.523
					c185.418-53.949,273.626,53.594,412.581,11.518C1898.837,46.819,1746.714,472.247,1746.714,472.247z"/>
			</g>
		</g>
	</g>
</g>
</svg>
