<?xml version="1.0" encoding="utf-8"?>
<!-- Generator: Adobe Illustrator 16.0.3, SVG Export Plug-In . SVG Version: 6.00 Build 0)  -->
<!DOCTYPE svg PUBLIC "-//W3C//DTD SVG 1.1//EN" "http://www.w3.org/Graphics/SVG/1.1/DTD/svg11.dtd">
<svg version="1.1" id="Layer_1" xmlns="http://www.w3.org/2000/svg" xmlns:xlink="http://www.w3.org/1999/xlink" x="0px" y="0px"
	 width="1440px" height="448px" viewBox="0 0 1440 448" enable-background="new 0 0 1440 448" xml:space="preserve">
<title>Group 23</title>
<desc>Created with Sketch.</desc>
<g id="Crugo-Design">
	<g id="Pricing" transform="translate(0.000000, -2477.000000)">
		<g id="Need-Help_x3F_" transform="translate(-266.000000, 2477.000000)">
			<g id="Group-23">
				<path id="Rectangle-59-Copy-2" opacity="0.1" fill="#FFFFFF" enable-background="new    " d="M1829.056,118.672
					c-181.665,35.989-256.96-66.962-442.167-66.962c-185.208,0-347.005,66.962-494.127,53.604
					C745.639,91.957,728.093,16.654,528.696,3.946C329.299-8.763,335.177,49.393,109.483,68.611
					C-116.21,87.828,78.889,92.052,78.889,92.052l156.313,386.092h1602.242C1837.445,478.144,1987.975,87.188,1829.056,118.672z"/>
				<path id="Rectangle-59" opacity="0.1" fill="#FFFFFF" enable-background="new    " d="M120.814,38.878
					c148.788,35.218,188.599-54.087,386.518-9.393c102.899,23.237,196.858,77.298,314.386,84.776
					c135.177,8.601,296.911-57.523,433.586-39.866c136.677,17.657,148.22,113.932,373.914,133.149
					c171.08,14.568,278.841,609.158,213.559-115.492l-81.377,389.546H270C270,481.597-27.974,3.659,120.814,38.878z"/>
				<path id="Rectangle-59-Copy" opacity="0.2" fill="#FFFFFF" enable-background="new    " d="M177.426,98.129
					c148.788,35.219,205.483-83.01,403.402-38.316c102.9,23.236,151.487,67.328,269.014,74.807
					c135.176,8.601,164.994-44.579,304.901-36.491c87.797,5.075,212.164,76.882,294.516,97.645
					C1585.705,230.176,1706,184.46,1706,184.46l4,298.606H245.551C245.551,483.066,28.638,62.909,177.426,98.129z"/>
			</g>
		</g>
	</g>
</g>
</svg>
