<?xml version="1.0" encoding="UTF-8" standalone="no"?>
<svg width="1440px" height="395px" viewBox="0 0 1440 395" version="1.1" xmlns="http://www.w3.org/2000/svg" xmlns:xlink="http://www.w3.org/1999/xlink">
    <!-- Generator: Sketch 39.1 (31720) - http://www.bohemiancoding.com/sketch -->
    <title>Group 23</title>
    <desc>Created with Sketch.</desc>
    <defs></defs>
    <g id="Crugo-Design" stroke="none" stroke-width="1" fill="none" fill-rule="evenodd">
        <g id="Pricing" transform="translate(0.000000, -2477.000000)">
            <g id="Need-Help?" transform="translate(-266.000000, 2477.000000)">
                <g id="Group-23">
                    <path d="M72.3664566,217.771797 C254.030833,284.986863 329.326125,92.7126199 514.533705,92.7126199 C699.741286,92.7126199 861.538008,217.771794 1008.66044,192.825337 C1155.78288,167.87888 1173.32915,27.2404146 1372.72612,3.50530472 C1572.12309,-20.2298051 1566.24504,88.3852343 1791.93864,124.276287 C2017.63225,160.167339 1822.53206,168.056504 1822.53206,168.056504 L1670.21879,384.875005 L67.9766591,384.875005 C67.9766591,384.875005 -86.553093,158.972223 72.3664566,217.771797 Z" id="Rectangle-59-Copy-2" fill="#C1E6FF" opacity="0.418027052" transform="translate(950.710985, 192.511037) scale(-1, 1) translate(-950.710985, -192.511037) "></path>
                    <path d="M120.814155,68.7466555 C269.602218,134.522648 309.41318,-32.2681851 507.331914,51.2039724 C610.231634,94.6018932 704.190784,195.568671 821.717748,209.535195 C956.893582,225.599052 1118.62839,102.103067 1255.30393,135.079782 C1391.97947,168.056497 1403.52378,347.861802 1629.21738,383.752854 C1854.91099,419.643906 1842.77512,168.056504 1842.77512,168.056504 L1757.39841,391.324227 L266.000006,391.324227 C266.000006,391.324227 -27.9739088,2.97066307 120.814155,68.7466555 Z" id="Rectangle-59" fill="#9AD6FF" opacity="0.540403451"></path>
                    <path d="M177.425674,179.404608 C326.213737,245.180601 382.908893,24.372968 580.827627,107.845125 C683.727346,151.243046 732.314528,233.590185 849.841492,247.556708 C985.017326,263.620566 1014.83611,164.300453 1154.74325,179.404612 C1242.54003,188.883017 1366.9076,322.991266 1449.25842,361.768641 C1585.70515,426.018702 1706,340.638729 1706,340.638729 L1706.00004,394.066406 L241.550782,394.066406 C241.550782,394.066406 28.6376102,113.628616 177.425674,179.404608 Z" id="Rectangle-59-Copy" fill="#78C8FF"></path>
                </g>
            </g>
        </g>
    </g>
</svg>