<svg xmlns="http://www.w3.org/2000/svg" width="1440" height="812"><g fill="#FFF"><path opacity=".1" d="M2501.089-393.168L-70.446-7.337l-7.04 480.633s-291.944 68.049 60.258 67.862c352.201-.188 378.259 190.934 671.592 94.043 293.337-96.89 274.589-347.124 488.63-431.579 214.044-84.458 498.477 88.691 778.027 37.157 279.547-51.535 331.361-407.918 627.181-341.208 258.784 58.358-47.113-292.739-47.113-292.739z"/><path opacity=".1" d="M-20-28.27l2404.227-354.988L2584.9-17.514s-62.596-442.283-391.711-316.868c-329.12 125.412-288.716 442.303-484.408 537.862-195.688 95.563-479.525-74.883-678.393-9.239-172.902 57.063-282.253 259.348-423.61 363.692C334.886 758.626 221.155 478.73 17.73 634.877-185.694 791.028-20-28.27-20-28.27z"/><path opacity=".2" d="M-57.784-26.252l2363.554-347.49 17.181 93.208s-209.032-115.476-394.316 34.577c-111.829 90.563-256.421 359.132-385.892 400.092-206.313 65.279-283.265-99.688-482.133-34.052-172.901 57.065-219.756 214.246-361.114 318.586C427.603 639.361 271.019 269.93 67.594 426.078-135.833 582.229-57.784-26.252-57.784-26.252z"/></g></svg>