<svg xmlns="http://www.w3.org/2000/svg" width="1440" height="434"><g fill="#FFF"><path opacity=".1" d="M-176.958 479.078H1450.58l154.718-394.076s198.179-3.423-31.077-18.996c-229.257-15.573-223.286-62.7-425.831-52.402S928.022 84.925 778.577 95.748C629.13 106.573 464.779 52.31 276.647 52.31c-188.131 0-264.614 83.427-449.147 54.263-161.428-25.513-4.459 372.505-4.458 372.505z"/><path opacity=".1" d="M1415.231 481.877L-99.713 462.81l-86.725-377.807c-176.293 1561.128 163.969 97.189 216.93 93.589C259.75 163.018 271.475 85.003 410.31 70.694 549.143 56.386 713.43 109.97 850.741 103c119.383-6.06 214.826-49.869 319.35-68.699 201.043-36.218 241.483 36.151 392.619 7.611 151.138-28.54-147.479 439.965-147.479 439.965z"/><path opacity=".2" d="M1440.066 483.066L-47.502 464V159.885s122.194 37.046 260.794 9.168c83.651-16.825 209.982-75.015 299.165-79.127 142.116-6.554 172.405 36.54 309.715 29.57 119.382-6.06 168.735-41.79 273.261-60.62 201.043-36.218 258.634 59.589 409.771 31.049 151.136-28.539-65.138 393.141-65.138 393.141z"/></g></svg>