<svg xmlns="http://www.w3.org/2000/svg" width="1440" height="192"><g fill="#FFF"><path opacity=".1" d="M-128.225 292.53l1597.94-97.104L1590.526 77.22s193.443-15.789-36.79-20.15c-230.234-4.361-239.948-59.308-435.406-35.294-195.459 24.014-192.788 95.763-335.938 117.217-143.149 21.455-322.447-31.595-507.159-20.37-184.709 11.224-232.228 112.426-423.044 89.654-166.925-19.921 19.586 84.253 19.586 84.253z"/><path opacity=".1" d="M1435.938 200.776L-51.458 291.163l-117.167-107.042s23.978 127.186 243.917 95.468C295.233 247.872 280.96 156.801 412.54 131.943c131.579-24.858 310.59 27.41 443.099 11.143 115.21-14.142 194.438-70.583 290.836-98.631 185.417-53.948 249.041 27.468 387.996-14.608 138.957-42.076-98.533 170.929-98.533 170.929z"/><path opacity=".2" d="M1460.714 200.673L.196 289.426l-7.662-26.854s132.216 35.622 259.083-4.939c76.569-24.48 181.37-99.422 267.572-109.506 137.365-16.071 181.347 32.041 313.856 15.775C948.253 149.76 984.9 105.426 1081.3 77.379c185.418-53.949 273.626 53.594 412.581 11.518 138.956-42.078-33.167 111.776-33.167 111.776z"/></g></svg>