<svg width="1440" height="395" xmlns="http://www.w3.org/2000/svg"><g fill="none" fill-rule="evenodd"><path d="M1563.056 217.772c-181.665 67.215-256.96-125.06-442.168-125.06-185.207 0-347.004 125.06-494.126 100.113C479.639 167.88 462.092 27.24 262.696 3.505 63.299-20.23 69.176 88.385-156.517 124.276c-225.693 35.891-30.593 43.78-30.593 43.78l152.313 216.819h1602.242s154.53-225.903-4.39-167.103z" fill="#C1E6FF" opacity=".418"/><path d="M-145.186 68.747C3.602 134.523 43.414-32.268 241.332 51.204c102.9 43.398 196.859 144.365 314.386 158.331 135.176 16.064 296.91-107.432 433.586-74.455 136.675 32.976 148.22 212.782 373.913 248.673 225.694 35.89 213.558-215.696 213.558-215.696l-85.377 223.267H0S-293.974 2.971-145.186 68.747z" fill="#9AD6FF" opacity=".54"/><path d="M-88.574 179.405c148.788 65.776 205.483-155.032 403.402-71.56 102.9 43.398 151.487 125.745 269.013 139.712 135.176 16.064 164.995-83.257 304.902-68.152 87.797 9.478 212.165 143.586 294.515 182.364 136.447 64.25 256.742-21.13 256.742-21.13v53.427H-24.45S-237.361 113.63-88.573 179.405z" fill="#78C8FF"/></g></svg>