<svg xmlns="http://www.w3.org/2000/svg" width="1440" height="448"><g fill="#FFF"><path opacity=".1" d="M1563.056 118.672c-181.665 35.989-256.96-66.962-442.167-66.962-185.208 0-347.005 66.962-494.127 53.604C479.639 91.957 462.093 16.654 262.696 3.946 63.299-8.763 69.177 49.393-156.517 68.611c-225.693 19.217-30.594 23.441-30.594 23.441l156.313 386.092h1602.242c.001 0 150.531-390.956-8.388-359.472z"/><path opacity=".1" d="M-145.186 38.878C3.602 74.096 43.413-15.209 241.332 29.485c102.899 23.237 196.858 77.298 314.386 84.776 135.177 8.601 296.911-57.523 433.586-39.866 136.677 17.657 148.22 113.932 373.914 133.149 171.08 14.568 278.841 609.158 213.559-115.492L1495.4 481.598H4c0-.001-297.974-477.939-149.186-442.72z"/><path opacity=".2" d="M-88.574 98.129c148.788 35.219 205.483-83.01 403.402-38.316 102.9 23.236 151.487 67.328 269.014 74.807 135.176 8.601 164.994-44.579 304.901-36.491 87.797 5.075 212.164 76.882 294.516 97.645C1319.705 230.176 1440 184.46 1440 184.46l4 298.606H-20.449S-237.362 62.909-88.574 98.129z"/></g></svg>