<?xml version="1.0" encoding="utf-8"?>
<!-- Generator: Adobe Illustrator 16.0.3, SVG Export Plug-In . SVG Version: 6.00 Build 0)  -->
<!DOCTYPE svg PUBLIC "-//W3C//DTD SVG 1.1//EN" "http://www.w3.org/Graphics/SVG/1.1/DTD/svg11.dtd">
<svg version="1.1" id="Layer_1" xmlns="http://www.w3.org/2000/svg" xmlns:xlink="http://www.w3.org/1999/xlink" x="0px" y="0px"
	 width="24px" height="24px" viewBox="0 0 24 24" enable-background="new 0 0 24 24" xml:space="preserve">
<g>
	<path fill="none" d="M5,19h14V8H5V19z M12,12h5v5h-5V12z"/>
	<path d="M19,3h-1V1h-2v2H8V1H6v2H5C3.89,3,3.01,3.9,3.01,5L3,19c0,1.1,0.89,2,2,2h14c1.1,0,2-0.9,2-2V5C21,3.9,20.1,3,19,3z M19,19
		H5V8h14V19z"/>
</g>
<g>
	<path d="M11.619,11.5v1.402c0.282,0.05,0.581,0.137,0.881,0.275c0.313,0.146,0.609,0.237,0.881,0.294v-1.409
		c-0.283-0.051-0.589-0.14-0.904-0.281C12.171,11.643,11.883,11.554,11.619,11.5z"/>
	<path d="M12.5,10.017c-1.771-0.788-3.104,0.019-3.104,0.019v2.819v4.991l0.022-0.001c0.026,0.098,0.101,0.177,0.208,0.177
		c0.113,0,0.195-0.086,0.215-0.193l0.017-0.001V14.79c0.485-0.175,1.438-0.364,2.643,0.16c1.771,0.771,2.995,0,2.995,0v-4.934
		C15.495,10.017,14.271,10.805,12.5,10.017z M15.149,13.357h-0.006c0,0-0.744,0.298-1.763,0.114v1.408v0.003
		c-0.271-0.056-0.565-0.147-0.878-0.291c-0.302-0.138-0.601-0.224-0.884-0.274v-1.408c-1.072-0.221-1.762,0.129-1.762,0.129v-1.465
		c0,0,0.785-0.256,1.762-0.082v-1.393c0.265,0.054,0.554,0.143,0.86,0.28c0.315,0.141,0.618,0.228,0.901,0.279v1.402
		c1.066,0.218,1.763-0.137,1.763-0.137l0.006-0.005V13.357z"/>
</g>
<path fill="none" d="M0,0h24v24H0V0z"/>
</svg>
