<svg xmlns="http://www.w3.org/2000/svg" width="24" height="24"><path fill="none" d="M5 19h14V8H5v11zm7-7h5v5h-5v-5z"/><path d="M19 3h-1V1h-2v2H8V1H6v2H5c-1.11 0-1.99.9-1.99 2L3 19a2 2 0 0 0 2 2h14c1.1 0 2-.9 2-2V5c0-1.1-.9-2-2-2zm0 16H5V8h14v11z"/><path d="M11.619 11.5v1.402c.282.05.581.137.881.275.313.146.609.237.881.294v-1.409a3.914 3.914 0 0 1-.904-.281 4.07 4.07 0 0 0-.858-.281z"/><path d="M12.5 10.017c-1.771-.788-3.104.019-3.104.019v7.81l.022-.001c.026.098.101.177.208.177.113 0 .195-.086.215-.193l.017-.001V14.79c.485-.175 1.438-.364 2.643.16 1.771.771 2.995 0 2.995 0v-4.934c-.001.001-1.225.789-2.996.001zm2.649 3.34h-.006s-.744.298-1.763.114v1.411a4.057 4.057 0 0 1-.878-.291 3.65 3.65 0 0 0-.884-.274v-1.408c-1.072-.221-1.762.129-1.762.129v-1.465s.785-.256 1.762-.082v-1.393c.265.054.554.143.86.28.315.141.618.228.901.279v1.402c1.066.218 1.763-.137 1.763-.137l.006-.005v1.44z"/><path fill="none" d="M0 0h24v24H0V0z"/></svg>