<svg xmlns="http://www.w3.org/2000/svg" width="24" height="24"><path fill="none" d="M5 19h14V8H5v11zm7-7h5v5h-5v-5z"/><path d="M19 3h-1V1h-2v2H8V1H6v2H5c-1.11 0-1.99.9-1.99 2L3 19a2 2 0 0 0 2 2h14c1.1 0 2-.9 2-2V5c0-1.1-.9-2-2-2zm0 16H5V8h14v11z"/><path fill="none" d="M0 0h24v24H0V0z"/><path d="M12 9.447s-1.866 1.857-1.866 4.76c0 .133.012.266.035.395-.278.236-.663.637-.664 1.039.001.941.628 1.883.628 1.883l.888-1.186.355.355h1.245l.354-.355.889 1.186s.629-.941.629-1.883c0-.402-.387-.803-.662-1.039.021-.129.033-.262.033-.395.001-2.903-1.864-4.76-1.864-4.76zm-.414 3.723a.586.586 0 1 1 .829-.829.586.586 0 0 1-.829.829z"/><path d="M12.405 17.135c-.001.404-.405.605-.405.605s-.404-.201-.404-.605c0-.025.01-.045.014-.068l-.189.002a.66.66 0 0 0-.094.336c0 .566.674 1.148.674 1.148s.674-.574.674-1.148a.657.657 0 0 0-.094-.338l-.19.002c.003.019.014.04.014.066z"/></svg>