<svg xmlns="http://www.w3.org/2000/svg" width="1440" height="812"><g fill="#FFF"><path opacity=".1" d="M2548.202 905.873c-295.82 66.71-347.634-289.673-627.181-341.208-279.551-51.534-563.983 121.615-778.027 37.157-214.041-84.455-195.293-334.689-488.63-431.579-293.333-96.892-319.391 94.23-671.592 94.043-352.202-.188-60.258 67.861-60.258 67.861l7.04 480.634 2571.535 385.831s305.897-351.098 47.113-292.739z"/><path opacity=".1" d="M17.73 170.567c203.425 156.146 317.156-123.75 589.048 76.943 141.356 104.344 250.708 306.629 423.609 363.692 198.868 65.644 482.705-104.802 678.394-9.239 195.691 95.56 155.287 412.45 484.408 537.862C2522.303 1265.24 2584.9 822.957 2584.9 822.957l-200.674 365.744L-20 833.714S-185.694 14.416 17.73 170.567z"/><path opacity=".2" d="M67.594 379.366c203.425 156.147 360.01-213.283 631.902-12.592 141.358 104.341 188.213 261.521 361.114 318.587 198.868 65.636 275.819-99.331 482.133-34.053 129.471 40.961 274.063 309.529 385.892 400.093 185.284 150.053 394.316 34.577 394.316 34.577l-17.182 93.207L-57.784 831.696s-78.049-608.481 125.378-452.33z"/></g></svg>