<?xml version="1.0" encoding="utf-8"?>
<!-- Generator: Adobe Illustrator 16.0.3, SVG Export Plug-In . SVG Version: 6.00 Build 0)  -->
<!DOCTYPE svg PUBLIC "-//W3C//DTD SVG 1.1//EN" "http://www.w3.org/Graphics/SVG/1.1/DTD/svg11.dtd">
<svg version="1.1" id="Layer_1" xmlns="http://www.w3.org/2000/svg" xmlns:xlink="http://www.w3.org/1999/xlink" x="0px" y="0px"
	 width="1440px" height="434px" viewBox="0 0 1440 434" enable-background="new 0 0 1440 434" xml:space="preserve">
<title>Group 23</title>
<desc>Created with Sketch.</desc>
<g id="Crugo-Design">
	<g id="Pricing" transform="translate(0.000000, -2477.000000)">
		<g id="Need-Help_x3F_" transform="translate(-266.000000, 2477.000000)">
			<g id="Group-23">
				<path id="Rectangle-59-Copy-2" opacity="0.1" fill="#FFFFFF" enable-background="new    " d="M89.042,479.078h1627.538
					l154.718-394.076c0,0,198.179-3.423-31.077-18.996c-229.257-15.573-223.286-62.7-425.831-52.402s-220.368,71.321-369.813,82.144
					C895.13,106.573,730.779,52.31,542.647,52.31c-188.131,0-264.614,83.427-449.147,54.263
					C-67.928,81.06,89.041,479.078,89.042,479.078z"/>
				<path id="Rectangle-59" opacity="0.1" fill="#FFFFFF" enable-background="new    " d="M1681.231,481.877L166.287,462.81
					L79.562,85.003c-176.293,1561.128,163.969,97.189,216.93,93.589C525.75,163.018,537.475,85.003,676.31,70.694
					c138.833-14.308,303.12,39.276,440.431,32.306c119.383-6.06,214.826-49.869,319.35-68.699
					c201.043-36.218,241.483,36.151,392.619,7.611C1979.848,13.372,1681.231,481.877,1681.231,481.877z"/>
				<path id="Rectangle-59-Copy" opacity="0.2" fill="#FFFFFF" enable-background="new    " d="M1706.066,483.066L218.498,464
					V159.885c0,0,122.194,37.046,260.794,9.168c83.651-16.825,209.982-75.015,299.165-79.127
					c142.116-6.554,172.405,36.54,309.715,29.57c119.382-6.06,168.735-41.79,273.261-60.62
					c201.043-36.218,258.634,59.589,409.771,31.049C1922.34,61.386,1706.066,483.066,1706.066,483.066z"/>
			</g>
		</g>
	</g>
</g>
</svg>
