<?xml version="1.0" encoding="utf-8"?>
<!-- Generator: Adobe Illustrator 16.0.3, SVG Export Plug-In . SVG Version: 6.00 Build 0)  -->
<!DOCTYPE svg PUBLIC "-//W3C//DTD SVG 1.1//EN" "http://www.w3.org/Graphics/SVG/1.1/DTD/svg11.dtd">
<svg version="1.1" id="Layer_1" xmlns="http://www.w3.org/2000/svg" xmlns:xlink="http://www.w3.org/1999/xlink" x="0px" y="0px"
	 width="1440px" height="812px" viewBox="0 0 1440 812" enable-background="new 0 0 1440 812" xml:space="preserve">
<title>Group 23</title>
<desc>Created with Sketch.</desc>
<g id="Crugo-Design">
	<g id="Pricing" transform="translate(0.000000, -2477.000000)">
		<g id="Need-Help_x3F_" transform="translate(-266.000000, 2477.000000)">
			<g id="Group-23">
				<path id="Rectangle-59-Copy-2" opacity="0.1" fill="#FFFFFF" enable-background="new    " d="M2814.202,905.873
					c-295.82,66.71-347.634-289.673-627.181-341.208c-279.551-51.534-563.983,121.615-778.027,37.157
					c-214.041-84.455-195.293-334.689-488.63-431.579c-293.333-96.892-319.391,94.23-671.592,94.043
					c-352.202-0.188-60.258,67.861-60.258,67.861l7.04,480.634l2571.535,385.831
					C2767.089,1198.612,3072.986,847.514,2814.202,905.873z"/>
				<path id="Rectangle-59" opacity="0.1" fill="#FFFFFF" enable-background="new    " d="M283.73,170.567
					c203.425,156.146,317.156-123.75,589.048,76.943c141.356,104.344,250.708,306.629,423.609,363.692
					c198.868,65.644,482.705-104.802,678.394-9.239c195.691,95.56,155.287,412.45,484.408,537.862
					c329.114,125.415,391.711-316.868,391.711-316.868l-200.674,365.744L246,833.714C246,833.714,80.306,14.416,283.73,170.567z"/>
				<path id="Rectangle-59-Copy" opacity="0.2" fill="#FFFFFF" enable-background="new    " d="M333.594,379.366
					c203.425,156.147,360.01-213.283,631.902-12.592c141.358,104.341,188.213,261.521,361.114,318.587
					c198.868,65.636,275.819-99.331,482.133-34.053c129.471,40.961,274.063,309.529,385.892,400.093
					c185.284,150.053,394.316,34.577,394.316,34.577l-17.182,93.207L208.216,831.696
					C208.216,831.696,130.167,223.215,333.594,379.366z"/>
			</g>
		</g>
	</g>
</g>
</svg>
