<?xml version="1.0" encoding="utf-8"?>
<!-- Generator: Adobe Illustrator 16.0.3, SVG Export Plug-In . SVG Version: 6.00 Build 0)  -->
<!DOCTYPE svg PUBLIC "-//W3C//DTD SVG 1.1//EN" "http://www.w3.org/Graphics/SVG/1.1/DTD/svg11.dtd">
<svg version="1.1" id="Layer_1" xmlns="http://www.w3.org/2000/svg" xmlns:xlink="http://www.w3.org/1999/xlink" x="0px" y="0px"
	 width="1440px" height="812px" viewBox="0 0 1440 812" enable-background="new 0 0 1440 812" xml:space="preserve">
<title>Group 23</title>
<desc>Created with Sketch.</desc>
<g id="Crugo-Design">
	<g id="Pricing" transform="translate(0.000000, -2477.000000)">
		<g id="Need-Help_x3F_" transform="translate(-266.000000, 2477.000000)">
			<g id="Group-23">
				<path id="Rectangle-59-Copy-2" opacity="0.1" fill="#FFFFFF" enable-background="new    " d="M2767.089-393.168L195.554-7.337
					l-7.04,480.633c0,0-291.944,68.049,60.258,67.862c352.201-0.188,378.259,190.934,671.592,94.043
					c293.337-96.89,274.589-347.124,488.63-431.579c214.044-84.458,498.477,88.691,778.027,37.157
					c279.547-51.535,331.361-407.918,627.181-341.208C3072.986-42.071,2767.089-393.168,2767.089-393.168z"/>
				<path id="Rectangle-59" opacity="0.1" fill="#FFFFFF" enable-background="new    " d="M246-28.27l2404.227-354.988
					L2850.9-17.514c0,0-62.596-442.283-391.711-316.868c-329.12,125.412-288.716,442.303-484.408,537.862
					c-195.688,95.563-479.525-74.883-678.393-9.239c-172.902,57.063-282.253,259.348-423.61,363.692
					c-271.892,200.693-385.623-79.203-589.048,76.944C80.306,791.028,246-28.27,246-28.27z"/>
				<path id="Rectangle-59-Copy" opacity="0.2" fill="#FFFFFF" d="M208.216-26.252L2571.77-373.742l17.181,93.208
					c0,0-209.032-115.476-394.316,34.577c-111.829,90.563-256.421,359.132-385.892,400.092
					c-206.313,65.279-283.265-99.688-482.133-34.052c-172.901,57.065-219.756,214.246-361.114,318.586
					C693.603,639.361,537.019,269.93,333.594,426.078C130.167,582.229,208.216-26.252,208.216-26.252z"/>
			</g>
		</g>
	</g>
</g>
</svg>
